<svg width="50" height="50" viewBox="0 0 50 50" fill="none" xmlns="http://www.w3.org/2000/svg">
<circle cx="25" cy="25" r="25" fill="url(#paint0_linear_630_75)"/>
<g clip-path="url(#clip0_630_75)">
<path d="M31.6165 27.4897C30.6472 27.4897 29.6977 27.3383 28.797 27.0406C28.3579 26.8892 27.86 27.0059 27.5705 27.3003L25.7865 28.6476C23.7403 27.5559 22.4303 26.2466 21.3518 24.2137L22.6627 22.4719C22.9927 22.1411 23.111 21.6589 22.9695 21.2065C22.6709 20.3016 22.5188 19.3513 22.5188 18.3837C22.5188 17.6997 21.9622 17.1431 21.2782 17.1431H18.3834C17.6994 17.1431 17.1428 17.6997 17.1428 18.3837C17.1428 26.364 23.6361 32.8574 31.6165 32.8574C32.3005 32.8574 32.8571 32.3007 32.8571 31.6167V28.7303C32.8571 28.0463 32.3005 27.4897 31.6165 27.4897ZM32.0301 31.6167C32.0301 31.845 31.844 32.0303 31.6165 32.0303C24.0918 32.0303 17.9699 25.9083 17.9699 18.3837C17.9699 18.1554 18.156 17.9701 18.3834 17.9701H21.2782C21.5056 17.9701 21.6917 18.1554 21.6917 18.3837C21.6917 19.4398 21.8572 20.477 22.1813 21.4604C22.2293 21.615 22.1904 21.7747 22.0391 21.9318L20.5338 23.925C20.4387 24.0516 20.4238 24.2211 20.4958 24.3617C21.7223 26.771 23.2119 28.2613 25.6385 29.5044C25.7783 29.5772 25.9495 29.5623 26.076 29.4664L28.1123 27.9231C28.2231 27.8139 28.386 27.7759 28.5333 27.8247C29.5224 28.1514 30.5596 28.3167 31.6166 28.3167C31.844 28.3167 32.0301 28.502 32.0301 28.7303V31.6167H32.0301Z" fill="white"/>
</g>
<defs>
<linearGradient id="paint0_linear_630_75" x1="25" y1="0" x2="25" y2="50" gradientUnits="userSpaceOnUse">
<stop stop-color="#333333"/>
<stop offset="1" stop-color="#DD1818"/>
</linearGradient>
<clipPath id="clip0_630_75">
<rect width="15.7143" height="15.7143" fill="white" transform="translate(17.1428 17.1431)"/>
</clipPath>
</defs>
</svg>
