<svg width="15" height="15" viewBox="0 0 15 15" fill="none" xmlns="http://www.w3.org/2000/svg">
<path d="M11.7266 5.1445C11.6856 5.05649 11.5973 5.00001 11.5001 5.00001H8.53761L11.4614 0.38376C11.5101 0.306768 11.5131 0.209268 11.4691 0.129521C11.4251 0.0495117 11.3411 0 11.2501 0H7.2501C7.15536 0 7.06884 0.0534961 7.02636 0.138252L3.27636 7.63825C3.2376 7.71551 3.24185 7.8075 3.28735 7.88124C3.33311 7.95498 3.41335 7.99998 3.5001 7.99998H6.07084L3.26959 14.653C3.22184 14.7667 3.26435 14.8987 3.36958 14.9632C3.41007 14.988 3.45507 15 3.49984 15C3.57159 15 3.64234 14.9692 3.69135 14.9112L11.6914 5.41122C11.7541 5.33675 11.7676 5.23274 11.7266 5.1445Z" fill="#BA1628"/>
</svg>
