<svg width="50" height="50" viewBox="0 0 50 50" fill="none" xmlns="http://www.w3.org/2000/svg">
<circle cx="25" cy="25" r="25" fill="url(#paint0_linear_630_58)"/>
<g clip-path="url(#clip0_630_58)">
<path d="M25 17.1431C21.9538 17.1431 19.4755 19.6214 19.4755 22.6676C19.4755 23.6968 19.7606 24.7013 20.3001 25.5727L24.6855 32.6397C24.7696 32.7751 24.9175 32.8574 25.0767 32.8574C25.0779 32.8574 25.0791 32.8574 25.0804 32.8574C25.2409 32.8561 25.3892 32.7713 25.4717 32.6335L29.7453 25.498C30.2551 24.645 30.5246 23.6663 30.5246 22.6676C30.5246 19.6214 28.0463 17.1431 25 17.1431ZM28.9552 25.0253L25.0697 31.5126L21.0827 25.0876C20.6336 24.3622 20.3901 23.5255 20.3901 22.6676C20.3901 20.1291 22.4615 18.0577 25 18.0577C27.5385 18.0577 29.6069 20.1291 29.6069 22.6676C29.6069 23.5 29.3794 24.3154 28.9552 25.0253Z" fill="white"/>
<path d="M24.9999 19.9053C23.4768 19.9053 22.2377 21.1444 22.2377 22.6676C22.2377 24.1809 23.4567 25.4298 24.9999 25.4298C26.5623 25.4298 27.7622 24.1643 27.7622 22.6676C27.7622 21.1444 26.5231 19.9053 24.9999 19.9053ZM24.9999 24.5152C23.9792 24.5152 23.1523 23.6855 23.1523 22.6676C23.1523 21.6521 23.9845 20.8199 24.9999 20.8199C26.0154 20.8199 26.8445 21.6521 26.8445 22.6676C26.8445 23.6707 26.0368 24.5152 24.9999 24.5152Z" fill="white"/>
</g>
<defs>
<linearGradient id="paint0_linear_630_58" x1="25" y1="0" x2="25" y2="50" gradientUnits="userSpaceOnUse">
<stop stop-color="#333333"/>
<stop offset="1" stop-color="#DD1818"/>
</linearGradient>
<clipPath id="clip0_630_58">
<rect width="15.7143" height="15.7143" fill="white" transform="translate(17.1428 17.1431)"/>
</clipPath>
</defs>
</svg>
