<svg width="170" height="170" viewBox="0 0 170 170" fill="none" xmlns="http://www.w3.org/2000/svg">
<g id="Meters svg">
<g id="electric-meter 1">
<g id="Group">
<g id="Group_2">
<path id="Vector" d="M112.399 73.0152C111.756 73.0152 111.232 72.4918 111.232 71.8487V55.4092C111.233 52.4266 108.806 50 105.823 50H64.1767C61.194 50 58.7677 52.4266 58.7677 55.4092V71.8486C58.7677 72.4918 58.2443 73.0151 57.6012 73.0151C55.8271 73.0151 54.3839 74.4584 54.3839 76.2323C54.3839 78.0063 55.8273 79.4496 57.6012 79.4496C58.2445 79.4496 58.7677 79.973 58.7677 80.6161V97.0555C58.7677 99.6875 60.6577 101.885 63.1514 102.366V116.783C63.1514 118.557 64.5948 120 66.3687 120H103.631C105.405 120 106.849 118.557 106.849 116.783V102.366C109.342 101.886 111.232 99.6878 111.232 97.0558V80.6164C111.232 79.9731 111.756 79.4499 112.399 79.4499C114.173 79.4499 115.616 78.0065 115.616 76.2326C115.617 74.4584 114.173 73.0152 112.399 73.0152ZM58.7677 77.6188C58.4056 77.4774 58.0126 77.399 57.6012 77.399C56.9579 77.399 56.4347 76.8756 56.4347 76.2325C56.4347 75.5892 56.9581 75.066 57.6012 75.066C58.0126 75.066 58.4058 74.9875 58.7677 74.8461V77.6188ZM104.798 116.783C104.798 117.426 104.275 117.949 103.631 117.949H66.3687C65.7255 117.949 65.2022 117.426 65.2022 116.783V102.465H67.5353V109.111C67.5353 110.281 68.4869 111.233 69.6567 111.233H100.343C101.513 111.233 102.465 110.281 102.465 109.111V102.465H104.798V116.783ZM75.1364 106.849C75.7027 106.849 76.1618 106.39 76.1618 105.823V102.465H80.6868V105.823C80.6868 106.39 81.1459 106.849 81.7122 106.849C82.2785 106.849 82.7376 106.39 82.7376 105.823V102.465H87.2626V105.823C87.2626 106.39 87.7217 106.849 88.288 106.849C88.8543 106.849 89.3134 106.39 89.3134 105.823V102.465H93.8384V105.823C93.8384 106.39 94.2975 106.849 94.8638 106.849C95.43 106.849 95.8891 106.39 95.8891 105.823V102.465H100.414V109.111C100.414 109.15 100.383 109.182 100.344 109.182H69.6565C69.6176 109.182 69.586 109.15 69.586 109.111V102.465H74.111V105.823C74.111 106.39 74.5701 106.849 75.1364 106.849ZM105.823 100.414H64.1767C62.3248 100.414 60.8183 98.9074 60.8183 97.0556V55.4092C60.8185 53.5574 62.3248 52.0508 64.1767 52.0508H105.823C107.675 52.0508 109.182 53.5574 109.182 55.4092V97.0556H109.182C109.182 98.9075 107.675 100.414 105.823 100.414ZM112.399 77.399C111.988 77.399 111.594 77.4774 111.232 77.6188V74.8461C111.594 74.9875 111.988 75.066 112.399 75.066C113.042 75.066 113.565 75.5893 113.565 76.2325C113.566 76.8757 113.042 77.399 112.399 77.399Z" fill="url(#paint0_linear_657_106)"/>
</g>
</g>
<g id="Group_3">
<g id="Group_4">
<path id="Vector_2" d="M98.1517 55.48H65.2726C64.7063 55.48 64.2472 55.9391 64.2472 56.5054V95.96C64.2472 96.5263 64.7063 96.9854 65.2726 96.9854H67.4642C68.0305 96.9854 68.4896 96.5263 68.4896 95.96C68.4896 95.3937 68.0305 94.9346 67.4642 94.9346H66.298V57.5308H98.1515C98.7178 57.5308 99.1769 57.0717 99.1769 56.5054C99.177 55.9391 98.7178 55.48 98.1517 55.48Z" fill="url(#paint1_linear_657_106)"/>
</g>
</g>
<g id="Group_5">
<g id="Group_6">
<path id="Vector_3" d="M104.727 55.48H102.536C101.969 55.48 101.51 55.9391 101.51 56.5054C101.51 57.0717 101.969 57.5308 102.536 57.5308H103.702V94.9346H71.8485C71.2822 94.9346 70.8231 95.3937 70.8231 95.96C70.8231 96.5263 71.2822 96.9854 71.8485 96.9854H104.727C105.294 96.9854 105.753 96.5263 105.753 95.96V56.5054C105.753 55.9389 105.294 55.48 104.727 55.48Z" fill="url(#paint2_linear_657_106)"/>
</g>
</g>
<g id="Group_7">
<g id="Group_8">
<path id="Vector_4" d="M97.0554 67.5352H72.9445C71.7747 67.5352 70.8231 68.4867 70.8231 69.6565V74.0403C70.8231 75.21 71.7747 76.1616 72.9445 76.1616H97.0554C98.2252 76.1616 99.1768 75.21 99.1768 74.0403V69.6565C99.1768 68.4867 98.2254 67.5352 97.0554 67.5352ZM75.207 74.1111H72.9446C72.9056 74.1109 72.874 74.0792 72.874 74.0404V69.6566C72.874 69.6177 72.9056 69.5861 72.9446 69.5861H75.207V74.1111ZM79.5909 74.1109H77.2579V69.5859H79.5909V74.1109ZM83.9746 74.1109H81.6416V69.5859H83.9746V74.1109ZM88.3585 74.1109H86.0255V69.5859H88.3585V74.1109ZM92.7421 74.1109H90.4091V69.5859H92.7421V74.1109ZM97.126 74.0404C97.126 74.0794 97.0944 74.1109 97.0554 74.1109H94.793V69.5859H97.0554C97.0944 69.5859 97.126 69.6175 97.126 69.6565V74.0404Z" fill="url(#paint3_linear_657_106)"/>
</g>
</g>
<g id="Group_9">
<g id="Group_10">
<path id="Vector_5" d="M74.0404 79.5908C72.2665 79.5908 70.8231 81.034 70.8231 82.8081C70.8231 84.5822 72.2665 86.0254 74.0404 86.0254C75.8143 86.0254 77.2577 84.582 77.2577 82.8081C77.2578 81.0342 75.8145 79.5908 74.0404 79.5908ZM74.0404 83.9746C73.3973 83.9746 72.8739 83.4512 72.8739 82.8081C72.8739 82.165 73.3973 81.6416 74.0404 81.6416C74.6835 81.6416 75.2069 82.1648 75.2069 82.8081C75.207 83.4514 74.6837 83.9746 74.0404 83.9746Z" fill="url(#paint4_linear_657_106)"/>
</g>
</g>
<g id="Group_11">
<g id="Group_12">
<path id="Vector_6" d="M95.9596 79.5908C94.1855 79.5908 92.7423 81.0342 92.7423 82.8081C92.7423 84.582 94.1857 86.0254 95.9596 86.0254C97.7335 86.0254 99.1769 84.582 99.1769 82.8081C99.177 81.0342 97.7338 79.5908 95.9596 79.5908ZM95.9596 83.9746C95.3163 83.9746 94.7931 83.4512 94.7931 82.8081C94.7931 82.165 95.3165 81.6416 95.9596 81.6416C96.6027 81.6416 97.1261 82.165 97.1261 82.8081C97.1262 83.4512 96.603 83.9746 95.9596 83.9746Z" fill="url(#paint5_linear_657_106)"/>
</g>
</g>
<g id="Group_13">
<g id="Group_14">
<path id="Vector_7" d="M85 79.5908C83.2259 79.5908 81.7827 81.034 81.7827 82.8081C81.7827 84.5822 83.2261 86.0254 85 86.0254C86.7739 86.0254 88.2173 84.582 88.2173 82.8081C88.2174 81.0342 86.7741 79.5908 85 79.5908ZM85 83.9746C84.3569 83.9746 83.8335 83.4512 83.8335 82.8081C83.8335 82.165 84.3569 81.6416 85 81.6416C85.6431 81.6416 86.1665 82.1648 86.1665 82.8081C86.1666 83.4514 85.6433 83.9746 85 83.9746Z" fill="url(#paint6_linear_657_106)"/>
</g>
</g>
</g>
<circle id="Ellipse 2" cx="85" cy="85" r="84.5" stroke="url(#paint7_linear_657_106)"/>
</g>
<defs>
<linearGradient id="paint0_linear_657_106" x1="85.0001" y1="50" x2="85.0001" y2="120" gradientUnits="userSpaceOnUse">
<stop stop-color="#333333"/>
<stop offset="1" stop-color="#DD1818"/>
</linearGradient>
<linearGradient id="paint1_linear_657_106" x1="81.7121" y1="55.48" x2="81.7121" y2="96.9854" gradientUnits="userSpaceOnUse">
<stop stop-color="#333333"/>
<stop offset="1" stop-color="#DD1818"/>
</linearGradient>
<linearGradient id="paint2_linear_657_106" x1="88.2879" y1="55.48" x2="88.2879" y2="96.9854" gradientUnits="userSpaceOnUse">
<stop stop-color="#333333"/>
<stop offset="1" stop-color="#DD1818"/>
</linearGradient>
<linearGradient id="paint3_linear_657_106" x1="85" y1="67.5352" x2="85" y2="76.1616" gradientUnits="userSpaceOnUse">
<stop stop-color="#333333"/>
<stop offset="1" stop-color="#DD1818"/>
</linearGradient>
<linearGradient id="paint4_linear_657_106" x1="74.0404" y1="79.5908" x2="74.0404" y2="86.0254" gradientUnits="userSpaceOnUse">
<stop stop-color="#333333"/>
<stop offset="1" stop-color="#DD1818"/>
</linearGradient>
<linearGradient id="paint5_linear_657_106" x1="95.9596" y1="79.5908" x2="95.9596" y2="86.0254" gradientUnits="userSpaceOnUse">
<stop stop-color="#333333"/>
<stop offset="1" stop-color="#DD1818"/>
</linearGradient>
<linearGradient id="paint6_linear_657_106" x1="85" y1="79.5908" x2="85" y2="86.0254" gradientUnits="userSpaceOnUse">
<stop stop-color="#333333"/>
<stop offset="1" stop-color="#DD1818"/>
</linearGradient>
<linearGradient id="paint7_linear_657_106" x1="85" y1="0" x2="85" y2="170" gradientUnits="userSpaceOnUse">
<stop stop-color="#333333"/>
<stop offset="1" stop-color="#DD1818"/>
</linearGradient>
</defs>
</svg>
