<svg width="170" height="170" viewBox="0 0 170 170" fill="none" xmlns="http://www.w3.org/2000/svg">
<g id="Poles svg">
<g id="electric-tower 1" clip-path="url(#clip0_657_105)">
<path id="Vector" d="M117.607 113.711H102.212L92.5355 93.9344V91.0923H109.198V93.1422H108.173C107.606 93.1422 107.147 93.6013 107.147 94.1676C107.147 94.7338 107.606 95.1929 108.173 95.1929H109.198V97.2437H108.173C107.606 97.2437 107.147 97.7028 107.147 98.2691C107.147 98.8354 107.606 99.2945 108.173 99.2945H112.274C112.841 99.2945 113.3 98.8354 113.3 98.2691C113.3 97.7028 112.841 97.2437 112.274 97.2437H111.249V95.1929H112.274C112.841 95.1929 113.3 94.7338 113.3 94.1676C113.3 93.6013 112.841 93.1422 112.274 93.1422H111.249C111.249 92.0321 111.248 89.4145 111.248 88.3217C111.248 86.6363 110.27 85.0692 108.756 84.3293L92.5355 76.4053V73.9596H98.5759C99.1423 73.9596 99.6013 73.5005 99.6013 72.9342C99.6013 72.3679 99.1423 71.9088 98.5759 71.9088H92.5355V61.5551L107.855 69.0391C108.671 69.4375 109.198 70.2813 109.198 71.1888V71.9088H103.364C102.798 71.9088 102.339 72.3679 102.339 72.9342C102.339 73.5005 102.798 73.9596 103.364 73.9596H109.198V76.0102H108.173C107.606 76.0102 107.147 76.4693 107.147 77.0356C107.147 77.6019 107.606 78.061 108.173 78.061H112.274C112.841 78.061 113.3 77.6019 113.3 77.0356C113.3 76.4693 112.841 76.0102 112.274 76.0102H111.249V72.9342C111.249 72.9314 111.248 72.929 111.248 72.9262V71.1888C111.248 69.5034 110.27 67.9363 108.756 67.1964L92.2882 59.1518L89.0112 52.0519L95.5964 52.0518C95.7846 52.0518 95.9379 52.205 95.938 52.3934L95.9387 54.1064H94.9137C94.3473 54.1064 93.8884 54.5655 93.8884 55.1318C93.8884 55.698 94.3473 56.1571 94.9137 56.1571H99.0153C99.5817 56.1571 100.041 55.698 100.041 55.1318C100.041 54.5655 99.5817 54.1064 99.0153 54.1064H97.9895L97.9888 52.3926C97.9884 51.0738 96.915 50.0008 95.5962 50.001L74.4044 50.0014C73.0852 50.0015 72.012 51.0749 72.012 52.394V54.1029H70.9866C70.4203 54.1029 69.9612 54.562 69.9612 55.1283C69.9612 55.6946 70.4203 56.1537 70.9866 56.1537H75.0882C75.6545 56.1537 76.1136 55.6946 76.1136 55.1283C76.1136 54.562 75.6545 54.1029 75.0882 54.1029H74.0628V52.394C74.0628 52.2056 74.2162 52.0522 74.4046 52.0522L80.9888 52.052L77.7121 59.1514L71.1109 62.3765C70.602 62.625 70.3911 63.239 70.6397 63.7479C70.8883 64.2566 71.5022 64.4677 72.0112 64.219L77.4635 61.5552V71.9086H60.8023V71.189C60.8023 70.2814 61.3292 69.4376 62.1446 69.0392L67.7119 66.3193C68.2208 66.0708 68.4317 65.4568 68.1832 64.9479C67.9346 64.439 67.3206 64.2281 66.8118 64.4766L61.2443 67.1968C59.73 67.9367 58.7515 69.5038 58.7515 71.1891V72.9338V72.934V76.0101H57.7261C57.1598 76.0101 56.7007 76.4692 56.7007 77.0355C56.7007 77.6018 57.1598 78.0609 57.7261 78.0609H61.8277C62.394 78.0609 62.8531 77.6018 62.8531 77.0355C62.8531 76.4692 62.394 76.0101 61.8277 76.0101H60.8023V73.9594H77.4637V76.4056L61.2443 84.3297C59.73 85.0696 58.7515 86.6367 58.7515 88.322V93.1422H57.7261C57.1598 93.1422 56.7007 93.6013 56.7007 94.1676C56.7007 94.7338 57.1598 95.1929 57.7261 95.1929H58.7515V97.2437H57.7261C57.1598 97.2437 56.7007 97.7028 56.7007 98.2691C56.7007 98.8354 57.1598 99.2945 57.7261 99.2945H61.8277C62.394 99.2945 62.8531 98.8354 62.8531 98.2691C62.8531 97.7028 62.394 97.2437 61.8277 97.2437H60.8023V95.1929H61.8277C62.394 95.1929 62.8531 94.7338 62.8531 94.1676C62.8531 93.6013 62.394 93.1422 61.8277 93.1422H60.8023V91.0923H68.207C68.7733 91.0923 69.2324 90.6332 69.2324 90.0669C69.2324 89.5007 68.7733 89.0416 68.207 89.0416H60.8023V88.322C60.8023 87.4145 61.3292 86.5706 62.1446 86.1722L77.4635 78.6881V89.0416H73.0124C72.4461 89.0416 71.987 89.5007 71.987 90.0669C71.987 90.6332 72.4461 91.0923 73.0124 91.0923H77.4635V93.9361L67.7879 113.711H52.3926C51.0734 113.711 50 114.784 50 116.103V117.607C50 118.926 51.0734 120 52.3926 120H117.607C118.927 120 120 118.926 120 117.607V116.103C120 114.784 118.927 113.711 117.607 113.711ZM97.5587 113.711L93.5146 109.244C93.1344 108.824 92.486 108.792 92.0663 109.172C91.6464 109.552 91.6142 110.2 91.9944 110.62L94.7925 113.711H75.2079L85 102.893L88.7769 107.066C88.9792 107.289 89.2578 107.403 89.5374 107.403C89.7828 107.403 90.0291 107.315 90.2253 107.138C90.6451 106.758 90.6774 106.109 90.2973 105.689L86.383 101.365L91.255 95.9835L99.9289 113.711H97.5587ZM90.4847 91.0923V93.1476H79.5143V91.0923H90.4847ZM80.9649 89.0416L85 85.0066L89.0353 89.0417H80.9649V89.0416ZM86.45 83.5564L90.4847 79.5218V87.5911L86.45 83.5564ZM90.4847 73.9596V76.0205H79.5143V73.9596H90.4847ZM80.9652 71.9088L85 67.8741L89.0348 71.9088H80.9652ZM89.0353 78.0712L85 82.1064L80.9647 78.0712H89.0353ZM86.45 66.424L90.4847 62.3895V70.4587L86.45 66.424ZM85 64.974L80.9643 60.9385H89.0357L85 64.974ZM83.5498 66.424L79.5143 70.4594V62.3887L83.5498 66.424ZM83.5498 83.5564L79.5143 87.5918V79.521L83.5498 83.5564ZM89.1995 95.1984L85 99.8376L80.8004 95.1984H89.1995ZM109.198 88.3217V89.0416H92.5355V78.6877L107.855 86.172C108.671 86.5704 109.198 87.4142 109.198 88.3217ZM86.7525 52.0519L89.9075 58.8876H80.0925L83.2474 52.052L86.7525 52.0519ZM78.745 95.9835L83.617 101.365L72.4418 113.711H70.0711L78.745 95.9835ZM117.949 117.607C117.949 117.795 117.796 117.949 117.607 117.949H52.3926C52.2042 117.949 52.0508 117.795 52.0508 117.607V116.103C52.0508 115.915 52.2042 115.761 52.3926 115.761H117.607C117.796 115.761 117.949 115.915 117.949 116.103V117.607Z" fill="url(#paint0_linear_657_105)"/>
</g>
<circle id="Ellipse 1" cx="85" cy="85" r="84.5" stroke="url(#paint1_linear_657_105)"/>
</g>
<defs>
<linearGradient id="paint0_linear_657_105" x1="85" y1="50.001" x2="85" y2="120" gradientUnits="userSpaceOnUse">
<stop stop-color="#333333"/>
<stop offset="1" stop-color="#DD1818"/>
</linearGradient>
<linearGradient id="paint1_linear_657_105" x1="85" y1="0" x2="85" y2="170" gradientUnits="userSpaceOnUse">
<stop stop-color="#333333"/>
<stop offset="1" stop-color="#DD1818"/>
</linearGradient>
<clipPath id="clip0_657_105">
<rect width="70" height="70" fill="white" transform="translate(50 50)"/>
</clipPath>
</defs>
</svg>
