<svg width="170" height="170" viewBox="0 0 170 170" fill="none" xmlns="http://www.w3.org/2000/svg">
<g id="Solar svg">
<g id="solar-panel 1">
<g id="Group">
<g id="Group_2">
<path id="Vector" d="M84.9999 55.5127C82.1516 55.5127 79.8345 57.8298 79.8345 60.6781C79.8345 63.5264 82.1516 65.8433 84.9999 65.8433C87.8481 65.8433 90.1653 63.5261 90.1653 60.6781C90.1654 57.8298 87.8481 55.5127 84.9999 55.5127ZM84.9999 63.7818C83.2884 63.7818 81.8959 62.3894 81.8959 60.678C81.8959 58.9665 83.2883 57.574 84.9999 57.574C86.7115 57.574 88.1038 58.9664 88.1038 60.678C88.1038 62.3895 86.7115 63.7818 84.9999 63.7818Z" fill="url(#paint0_linear_656_104)"/>
</g>
</g>
<g id="Group_3">
<g id="Group_4">
<path id="Vector_2" d="M84.9998 50C84.4304 50 83.9691 50.4616 83.9691 51.0307V52.4089C83.9691 52.9782 84.4305 53.4396 84.9998 53.4396C85.5691 53.4396 86.0306 52.978 86.0306 52.4089V51.0307C86.0307 50.4616 85.5693 50 84.9998 50Z" fill="url(#paint1_linear_656_104)"/>
</g>
</g>
<g id="Group_5">
<g id="Group_6">
<path id="Vector_3" d="M79.8818 54.1019L78.9073 53.1275C78.5049 52.725 77.8522 52.7251 77.4496 53.1275C77.0471 53.53 77.0471 54.1827 77.4497 54.5853L78.4241 55.5599C78.6253 55.7611 78.8892 55.8618 79.1529 55.8618C79.4167 55.8618 79.6805 55.7611 79.8819 55.5597C80.2844 55.1571 80.2844 54.5044 79.8818 54.1019Z" fill="url(#paint2_linear_656_104)"/>
</g>
</g>
<g id="Group_7">
<g id="Group_8">
<path id="Vector_4" d="M76.7311 59.647H75.353C74.7836 59.647 74.3223 60.1085 74.3223 60.6777C74.3223 61.247 74.7837 61.7084 75.353 61.7084H76.7311C77.3006 61.7084 77.7619 61.2469 77.7619 60.6777C77.7619 60.1085 77.3004 59.647 76.7311 59.647Z" fill="url(#paint3_linear_656_104)"/>
</g>
</g>
<g id="Group_9">
<g id="Group_10">
<path id="Vector_5" d="M79.8818 65.796C79.4792 65.3935 78.8266 65.3935 78.4239 65.796L77.4495 66.7704C77.047 67.1729 77.047 67.8256 77.4495 68.2281C77.6508 68.4294 77.9147 68.5301 78.1784 68.5301C78.4422 68.5301 78.706 68.4295 78.9074 68.2281L79.8818 67.2537C80.2843 66.8512 80.2843 66.1985 79.8818 65.796Z" fill="url(#paint4_linear_656_104)"/>
</g>
</g>
<g id="Group_11">
<g id="Group_12">
<path id="Vector_6" d="M84.9998 67.916C84.4304 67.916 83.9691 68.3776 83.9691 68.9467V70.3249C83.9691 70.8942 84.4305 71.3556 84.9998 71.3556C85.5691 71.3556 86.0306 70.894 86.0306 70.3249V68.9467C86.0307 68.3776 85.5693 67.916 84.9998 67.916Z" fill="url(#paint5_linear_656_104)"/>
</g>
</g>
<g id="Group_13">
<g id="Group_14">
<path id="Vector_7" d="M92.5504 66.7705L91.576 65.7961C91.1735 65.3936 90.5208 65.3934 90.1182 65.7959C89.7155 66.1985 89.7155 66.8511 90.118 67.2538L91.0924 68.2282C91.2938 68.4294 91.5575 68.5301 91.8214 68.5301C92.0851 68.5301 92.349 68.4294 92.5503 68.2282C92.9529 67.8257 92.9529 67.173 92.5504 66.7705Z" fill="url(#paint6_linear_656_104)"/>
</g>
</g>
<g id="Group_15">
<g id="Group_16">
<path id="Vector_8" d="M94.647 59.647H93.2689C92.6995 59.647 92.2382 60.1085 92.2382 60.6777C92.2382 61.2469 92.6996 61.7084 93.2689 61.7084H94.647C95.2165 61.7084 95.6777 61.2469 95.6777 60.6777C95.6777 60.1085 95.2165 59.647 94.647 59.647Z" fill="url(#paint7_linear_656_104)"/>
</g>
</g>
<g id="Group_17">
<g id="Group_18">
<path id="Vector_9" d="M92.5504 53.1275C92.148 52.725 91.4953 52.7251 91.0927 53.1275L90.1183 54.1019C89.7158 54.5044 89.7158 55.1571 90.1184 55.5597C90.3195 55.7611 90.5834 55.8618 90.8471 55.8618C91.1108 55.8618 91.3747 55.7611 91.5761 55.5597L92.5505 54.5853C92.953 54.1828 92.953 53.5301 92.5504 53.1275Z" fill="url(#paint8_linear_656_104)"/>
</g>
</g>
<g id="Group_19">
<g id="Group_20">
<path id="Vector_10" d="M113.591 102.799C113.59 102.781 113.59 102.763 113.589 102.745C113.585 102.708 113.58 102.673 113.572 102.638C113.572 102.637 113.572 102.636 113.572 102.635L111.736 93.9157C111.735 93.9126 111.735 93.9096 111.734 93.9064L109.899 85.1873C109.898 85.1841 109.897 85.1811 109.897 85.178L108.059 76.4502C107.959 75.9732 107.538 75.6318 107.051 75.6318H62.9491C62.4615 75.6318 62.0409 75.9732 61.9404 76.4502L60.1034 85.177C60.1026 85.1807 60.1018 85.1843 60.1011 85.188L58.2656 93.9072C58.2651 93.9097 58.2645 93.9123 58.2641 93.9148L56.4285 102.635C56.4209 102.671 56.415 102.709 56.4113 102.747C56.4105 102.756 56.4106 102.765 56.4099 102.773C56.4082 102.798 56.4062 102.822 56.4062 102.847V106.982C56.4062 107.552 56.8677 108.013 57.437 108.013H81.9015V113.804H73.9743C73.4048 113.804 72.9435 114.265 72.9435 114.835V117.939H62.9492C62.3798 117.939 61.9185 118.4 61.9185 118.969C61.9185 119.539 62.3799 120 62.9492 120H73.9744H96.0252H107.049C107.618 120 108.08 119.539 108.08 118.969C108.08 118.4 107.618 117.939 107.049 117.939H97.056V114.835C97.056 114.265 96.5946 113.804 96.0253 113.804H88.0981V108.013H112.563C113.132 108.013 113.593 107.551 113.593 106.982V102.866C113.594 102.865 113.594 102.863 113.594 102.861V102.848C113.594 102.831 113.592 102.815 113.591 102.799ZM111.293 101.817H95.1488L94.6808 95.15H109.889L111.293 101.817ZM108.052 86.4217L109.455 93.0886H94.5362L94.0682 86.4217H108.052ZM106.214 77.6934L107.618 84.3603H93.9235L93.4555 77.6934H106.214ZM78.6106 77.6934H91.389L91.857 84.3603H78.1427L78.6106 77.6934ZM77.9982 86.4217H92.0017L92.4697 93.0886H77.5303L77.9982 86.4217ZM77.3858 95.1502H92.6143L93.0822 101.817H76.918L77.3858 95.1502ZM63.7855 77.6934H76.544L76.0762 84.3603H62.382L63.7855 77.6934ZM61.9482 86.4217H75.9315L75.4637 93.0886H60.5446L61.9482 86.4217ZM94.9946 115.866V117.939H75.0053V115.866H82.9325H87.0675H94.9946ZM83.9633 113.804V108.013H86.0366V113.804H83.9633ZM87.0794 105.952C87.0754 105.952 87.0714 105.951 87.0675 105.951H82.9325C82.9286 105.951 82.9246 105.952 82.9206 105.952H58.4677V103.878H63.378C63.9474 103.878 64.4087 103.417 64.4087 102.848C64.4087 102.278 63.9473 101.817 63.378 101.817H58.7072L60.1107 95.1502H75.319L74.8512 101.817H67.8356H67.8354C67.266 101.817 66.8047 102.278 66.8047 102.848C66.8047 103.417 67.2661 103.878 67.8354 103.878H67.8356H75.8114C75.8121 103.878 75.8126 103.878 75.8133 103.878C75.8137 103.878 75.8142 103.878 75.8147 103.878H94.1852C94.1856 103.878 94.1862 103.878 94.1866 103.878C94.1873 103.878 94.1878 103.878 94.1885 103.878H111.532V105.952H87.0794V105.952Z" fill="url(#paint9_linear_656_104)"/>
</g>
</g>
</g>
<circle id="Ellipse 1" cx="85" cy="85" r="84.5" stroke="url(#paint10_linear_656_104)"/>
</g>
<defs>
<linearGradient id="paint0_linear_656_104" x1="84.9999" y1="55.5127" x2="84.9999" y2="65.8433" gradientUnits="userSpaceOnUse">
<stop stop-color="#333333"/>
<stop offset="1" stop-color="#DD1818"/>
</linearGradient>
<linearGradient id="paint1_linear_656_104" x1="84.9998" y1="50" x2="84.9998" y2="53.4396" gradientUnits="userSpaceOnUse">
<stop stop-color="#333333"/>
<stop offset="1" stop-color="#DD1818"/>
</linearGradient>
<linearGradient id="paint2_linear_656_104" x1="78.6658" y1="52.8257" x2="78.6658" y2="55.8618" gradientUnits="userSpaceOnUse">
<stop stop-color="#333333"/>
<stop offset="1" stop-color="#DD1818"/>
</linearGradient>
<linearGradient id="paint3_linear_656_104" x1="76.0421" y1="59.647" x2="76.0421" y2="61.7084" gradientUnits="userSpaceOnUse">
<stop stop-color="#333333"/>
<stop offset="1" stop-color="#DD1818"/>
</linearGradient>
<linearGradient id="paint4_linear_656_104" x1="78.6656" y1="65.4941" x2="78.6656" y2="68.5301" gradientUnits="userSpaceOnUse">
<stop stop-color="#333333"/>
<stop offset="1" stop-color="#DD1818"/>
</linearGradient>
<linearGradient id="paint5_linear_656_104" x1="84.9998" y1="67.916" x2="84.9998" y2="71.3556" gradientUnits="userSpaceOnUse">
<stop stop-color="#333333"/>
<stop offset="1" stop-color="#DD1818"/>
</linearGradient>
<linearGradient id="paint6_linear_656_104" x1="91.3342" y1="65.4941" x2="91.3342" y2="68.5301" gradientUnits="userSpaceOnUse">
<stop stop-color="#333333"/>
<stop offset="1" stop-color="#DD1818"/>
</linearGradient>
<linearGradient id="paint7_linear_656_104" x1="93.958" y1="59.647" x2="93.958" y2="61.7084" gradientUnits="userSpaceOnUse">
<stop stop-color="#333333"/>
<stop offset="1" stop-color="#DD1818"/>
</linearGradient>
<linearGradient id="paint8_linear_656_104" x1="91.3344" y1="52.8257" x2="91.3344" y2="55.8618" gradientUnits="userSpaceOnUse">
<stop stop-color="#333333"/>
<stop offset="1" stop-color="#DD1818"/>
</linearGradient>
<linearGradient id="paint9_linear_656_104" x1="84.9999" y1="75.6318" x2="84.9999" y2="120" gradientUnits="userSpaceOnUse">
<stop stop-color="#333333"/>
<stop offset="1" stop-color="#DD1818"/>
</linearGradient>
<linearGradient id="paint10_linear_656_104" x1="85" y1="0" x2="85" y2="170" gradientUnits="userSpaceOnUse">
<stop stop-color="#333333"/>
<stop offset="1" stop-color="#DD1818"/>
</linearGradient>
</defs>
</svg>
