<svg width="16" height="17" viewBox="0 0 16 17" fill="none" xmlns="http://www.w3.org/2000/svg">
<g id="close">
<path id="line1" d="M14.3625 2.39995L1.88291 15.8302C1.56979 16.1672 1.04217 16.1865 0.705194 15.8734C0.368215 15.5603 0.348855 15.0327 0.66198 14.6957L13.1415 1.26544C13.4547 0.928462 13.9823 0.909103 14.3193 1.22223C14.6562 1.53535 14.6756 2.06297 14.3625 2.39995Z" fill="black"/>
<path id="line2" d="M13.3581 16.2953L1.32777 2.46126C1.02591 2.11415 1.06264 1.58746 1.40975 1.2856C1.75686 0.983751 2.28356 1.02048 2.58541 1.36759L14.6158 15.2016C14.9176 15.5488 14.8809 16.0755 14.5338 16.3773C14.1867 16.6792 13.66 16.6424 13.3581 16.2953Z" fill="black"/>
</g>
</svg>
